<mxfile host="65bd71144e">
    <diagram id="GuIsVpLJbAmoslVvp-Sv" name="Page-1">
        <mxGraphModel dx="594" dy="457" grid="1" gridSize="10" guides="1" tooltips="1" connect="1" arrows="1" fold="1" page="1" pageScale="1" pageWidth="850" pageHeight="1100" background="#ffffff" math="0" shadow="0">
            <root>
                <mxCell id="0"/>
                <mxCell id="1" parent="0"/>
                <mxCell id="4" value="&lt;font color=&quot;#080808&quot;&gt;Cadastrar &lt;br&gt;Serviço&lt;br&gt;&lt;/font&gt;" style="whiteSpace=wrap;html=1;shape=mxgraph.basic.document;strokeColor=#000000;fillColor=#D9D9D9;" parent="1" vertex="1">
                    <mxGeometry x="40" y="40" width="100" height="80" as="geometry"/>
                </mxCell>
                <mxCell id="11" style="edgeStyle=none;html=1;strokeColor=#000000;fontSize=10;fontColor=#080808;" parent="1" source="5" target="10" edge="1">
                    <mxGeometry relative="1" as="geometry">
                        <Array as="points">
                            <mxPoint x="268" y="170"/>
                        </Array>
                    </mxGeometry>
                </mxCell>
                <mxCell id="5" value="" style="strokeWidth=2;html=1;shape=mxgraph.flowchart.start_1;whiteSpace=wrap;strokeColor=#000000;fontColor=#080808;fillColor=#000000;" parent="1" vertex="1">
                    <mxGeometry x="252.5" y="65" width="30" height="30" as="geometry"/>
                </mxCell>
                <mxCell id="9" value="" style="endArrow=none;dashed=1;html=1;strokeColor=#000000;fontColor=#080808;entryX=0;entryY=0.5;entryDx=0;entryDy=0;entryPerimeter=0;exitX=1;exitY=0.5;exitDx=0;exitDy=0;exitPerimeter=0;" parent="1" source="4" target="5" edge="1">
                    <mxGeometry width="50" height="50" relative="1" as="geometry">
                        <mxPoint x="160" y="110" as="sourcePoint"/>
                        <mxPoint x="210" y="60" as="targetPoint"/>
                    </mxGeometry>
                </mxCell>
                <mxCell id="14" style="edgeStyle=none;html=1;strokeColor=#000000;fontSize=10;fontColor=#080808;" parent="1" source="10" target="12" edge="1">
                    <mxGeometry relative="1" as="geometry"/>
                </mxCell>
                <mxCell id="10" value="&lt;font style=&quot;font-size: 10px;&quot;&gt;Acessar a página de cadastro de serviços&lt;/font&gt;" style="rounded=1;whiteSpace=wrap;html=1;strokeColor=#000000;fontColor=#080808;fillColor=#D9D9D9;" parent="1" vertex="1">
                    <mxGeometry x="222.5" y="180" width="95" height="50" as="geometry"/>
                </mxCell>
                <mxCell id="46" style="edgeStyle=orthogonalEdgeStyle;html=1;entryX=1;entryY=0.5;entryDx=0;entryDy=0;labelBackgroundColor=default;strokeColor=#000000;fontSize=10;fontColor=#080808;" parent="1" source="12" target="45" edge="1">
                    <mxGeometry relative="1" as="geometry"/>
                </mxCell>
                <mxCell id="48" value="Não" style="edgeLabel;align=center;verticalAlign=middle;resizable=0;points=[];fontSize=10;fontColor=#080808;labelBackgroundColor=none;" parent="46" vertex="1" connectable="0">
                    <mxGeometry x="-0.1032" relative="1" as="geometry">
                        <mxPoint as="offset"/>
                    </mxGeometry>
                </mxCell>
                <mxCell id="67" style="edgeStyle=none;html=1;entryX=0;entryY=0.5;entryDx=0;entryDy=0;strokeColor=#000000;" parent="1" source="12" target="64" edge="1">
                    <mxGeometry relative="1" as="geometry"/>
                </mxCell>
                <mxCell id="85" value="Sim" style="edgeLabel;align=center;verticalAlign=middle;resizable=0;points=[];labelBackgroundColor=none;fontColor=#000000;" vertex="1" connectable="0" parent="67">
                    <mxGeometry x="-0.2276" y="1" relative="1" as="geometry">
                        <mxPoint as="offset"/>
                    </mxGeometry>
                </mxCell>
                <mxCell id="12" value="O usuário é empreendedor?" style="strokeWidth=2;html=1;shape=mxgraph.flowchart.decision;whiteSpace=wrap;strokeColor=#000000;fontSize=10;fontColor=#080808;fillColor=#D9D9D9;" parent="1" vertex="1">
                    <mxGeometry x="225" y="290" width="90" height="80" as="geometry"/>
                </mxCell>
                <mxCell id="45" value="&lt;font style=&quot;font-size: 10px;&quot;&gt;Redirecionar para a página inicial do sistema&lt;/font&gt;" style="rounded=1;whiteSpace=wrap;html=1;strokeColor=#000000;fontColor=#080808;fillColor=#D9D9D9;" parent="1" vertex="1">
                    <mxGeometry x="60" y="305" width="95" height="50" as="geometry"/>
                </mxCell>
                <mxCell id="69" style="edgeStyle=none;html=1;strokeColor=#000000;" parent="1" source="64" target="68" edge="1">
                    <mxGeometry relative="1" as="geometry"/>
                </mxCell>
                <mxCell id="64" value="&lt;font style=&quot;font-size: 10px;&quot;&gt;Preencher todos os campos solicitados&lt;/font&gt;" style="rounded=1;whiteSpace=wrap;html=1;strokeColor=#000000;fontColor=#080808;fillColor=#D9D9D9;" parent="1" vertex="1">
                    <mxGeometry x="425" y="305" width="95" height="50" as="geometry"/>
                </mxCell>
                <mxCell id="71" style="edgeStyle=none;html=1;strokeColor=#000000;" parent="1" source="68" target="70" edge="1">
                    <mxGeometry relative="1" as="geometry"/>
                </mxCell>
                <mxCell id="68" value="&lt;font style=&quot;font-size: 10px;&quot;&gt;Clicar no botão salvar&lt;/font&gt;" style="rounded=1;whiteSpace=wrap;html=1;strokeColor=#000000;fontColor=#080808;fillColor=#D9D9D9;" parent="1" vertex="1">
                    <mxGeometry x="610" y="305" width="95" height="50" as="geometry"/>
                </mxCell>
                <mxCell id="73" style="edgeStyle=none;html=1;strokeColor=#000000;" parent="1" source="70" target="72" edge="1">
                    <mxGeometry relative="1" as="geometry"/>
                </mxCell>
                <mxCell id="74" value="Sim" style="edgeLabel;align=center;verticalAlign=middle;resizable=0;points=[];labelBackgroundColor=none;fontColor=#000000;" parent="73" vertex="1" connectable="0">
                    <mxGeometry x="0.1208" y="-2" relative="1" as="geometry">
                        <mxPoint as="offset"/>
                    </mxGeometry>
                </mxCell>
                <mxCell id="76" style="edgeStyle=none;html=1;entryX=0.5;entryY=0;entryDx=0;entryDy=0;strokeColor=#000000;fontColor=#000000;" parent="1" source="70" target="75" edge="1">
                    <mxGeometry relative="1" as="geometry"/>
                </mxCell>
                <mxCell id="79" value="Não" style="edgeLabel;align=center;verticalAlign=middle;resizable=0;points=[];fontColor=#000000;labelBackgroundColor=none;" parent="76" vertex="1" connectable="0">
                    <mxGeometry x="-0.2642" relative="1" as="geometry">
                        <mxPoint as="offset"/>
                    </mxGeometry>
                </mxCell>
                <mxCell id="70" value="Todas as informações estão corretas" style="strokeWidth=2;html=1;shape=mxgraph.flowchart.decision;whiteSpace=wrap;strokeColor=#000000;fontSize=10;fontColor=#080808;fillColor=#D9D9D9;" parent="1" vertex="1">
                    <mxGeometry x="608.75" y="440" width="97.5" height="90" as="geometry"/>
                </mxCell>
                <mxCell id="83" style="edgeStyle=orthogonalEdgeStyle;html=1;strokeColor=#000000;fontColor=#000000;" parent="1" source="72" edge="1">
                    <mxGeometry relative="1" as="geometry">
                        <mxPoint x="452.5" y="610" as="targetPoint"/>
                        <Array as="points">
                            <mxPoint x="453" y="560"/>
                        </Array>
                    </mxGeometry>
                </mxCell>
                <mxCell id="86" style="edgeStyle=none;html=1;fontColor=#000000;" edge="1" parent="1" source="72">
                    <mxGeometry relative="1" as="geometry">
                        <mxPoint x="452.5" y="439.9999999999999" as="targetPoint"/>
                    </mxGeometry>
                </mxCell>
                <mxCell id="72" value="&lt;span style=&quot;font-size: 10px;&quot;&gt;Exibir mensagem de sucesso e salvar serviço no banco de dados&lt;/span&gt;" style="rounded=1;whiteSpace=wrap;html=1;strokeColor=#000000;fontColor=#080808;fillColor=#D9D9D9;" parent="1" vertex="1">
                    <mxGeometry x="390" y="460" width="115" height="50" as="geometry"/>
                </mxCell>
                <mxCell id="78" style="edgeStyle=orthogonalEdgeStyle;html=1;exitX=1;exitY=0.5;exitDx=0;exitDy=0;entryX=0.5;entryY=0;entryDx=0;entryDy=0;strokeColor=#000000;fontColor=#000000;" parent="1" source="75" target="64" edge="1">
                    <mxGeometry relative="1" as="geometry">
                        <Array as="points">
                            <mxPoint x="790" y="625"/>
                            <mxPoint x="790" y="240"/>
                            <mxPoint x="473" y="240"/>
                        </Array>
                    </mxGeometry>
                </mxCell>
                <mxCell id="75" value="&lt;font style=&quot;font-size: 10px;&quot;&gt;Exibir mensagem de erro&lt;/font&gt;" style="rounded=1;whiteSpace=wrap;html=1;strokeColor=#000000;fontColor=#080808;fillColor=#D9D9D9;" parent="1" vertex="1">
                    <mxGeometry x="608.75" y="600" width="95" height="50" as="geometry"/>
                </mxCell>
                <mxCell id="84" style="edgeStyle=orthogonalEdgeStyle;html=1;entryX=1;entryY=0.5;entryDx=0;entryDy=0;entryPerimeter=0;strokeColor=#000000;fontColor=#000000;" parent="1" source="80" target="82" edge="1">
                    <mxGeometry relative="1" as="geometry"/>
                </mxCell>
                <mxCell id="80" value="" style="ellipse;html=1;shape=endState;fillColor=#000000;strokeColor=#000000;labelBackgroundColor=none;fontColor=#000000;" parent="1" vertex="1">
                    <mxGeometry x="437.5" y="610" width="30" height="30" as="geometry"/>
                </mxCell>
                <mxCell id="82" value="&lt;font color=&quot;#080808&quot;&gt;Cadastro finalizado&lt;br&gt;&lt;/font&gt;" style="whiteSpace=wrap;html=1;shape=mxgraph.basic.document;strokeColor=#000000;fillColor=#D9D9D9;" parent="1" vertex="1">
                    <mxGeometry x="230" y="595" width="90" height="60" as="geometry"/>
                </mxCell>
            </root>
        </mxGraphModel>
    </diagram>
</mxfile>